<?xml version="1.0" standalone="no"?><svg xmlns="http://www.w3.org/2000/svg" viewBox="0 0 1440 320"><path fill="#ff5500" fill-opacity="0.7" d="M0,32L21.8,53.3C43.6,75,87,117,131,149.3C174.5,181,218,203,262,181.3C305.5,160,349,96,393,58.7C436.4,21,480,11,524,26.7C567.3,43,611,85,655,112C698.2,139,742,149,785,138.7C829.1,128,873,96,916,80C960,64,1004,64,1047,80C1090.9,96,1135,128,1178,160C1221.8,192,1265,224,1309,218.7C1352.7,213,1396,171,1418,149.3L1440,128L1440,320L1418.2,320C1396.4,320,1353,320,1309,320C1265.5,320,1222,320,1178,320C1134.5,320,1091,320,1047,320C1003.6,320,960,320,916,320C872.7,320,829,320,785,320C741.8,320,698,320,655,320C610.9,320,567,320,524,320C480,320,436,320,393,320C349.1,320,305,320,262,320C218.2,320,175,320,131,320C87.3,320,44,320,22,320L0,320Z"></path></svg>